<svg t="1649508324641" class="icon" viewBox="0 0 1024 1024" version="1.1" xmlns="http://www.w3.org/2000/svg" p-id="5333" width="200" height="200"><path d="M389.4784 493.7216a34.9184 34.9184 0 1 1 53.6576-44.6976l281.3952 337.7152a34.9184 34.9184 0 1 1-53.6576 44.6976L389.4784 493.7216z m-26.8288 103.0144l64 20.6336-64 20.6336-21.2992 61.8496-21.3504-61.8496L256 617.3696l64-20.6336 21.3504-61.9008 21.2992 61.9008z m195.8912-309.4016l85.3504 27.4944-85.3504 27.4944-28.416 82.5344-28.4672-82.5344-85.3504-27.4944 85.3504-27.4944L530.1248 204.8l28.416 82.5344z m145.4592 199.3728L768 507.392l-64 20.6336-21.3504 61.9008-21.2992-61.9008-64-20.6336 64-20.6336 21.2992-61.8496 21.3504 61.8496z" p-id="5334" fill="#2c2c2c"></path></svg>
